<?xml version="1.0" encoding="utf-8"?>
<!-- Generator: Adobe Illustrator 22.1.0, SVG Export Plug-In . SVG Version: 6.00 Build 0)  -->
<svg version="1.1" xmlns="http://www.w3.org/2000/svg" xmlns:xlink="http://www.w3.org/1999/xlink" x="0px" y="0px"
	 viewBox="0 0 2272 1872" style="enable-background:new 0 0 2272 1872;" xml:space="preserve">
<style type="text/css">
	.st0{fill:#55C4B4;}
	.st1{fill:#3078A4;}
	.st2{fill:#96D6EE;}
	.st3{fill:#007E42;}
	.st4{fill:#FBB318;}
	.st5{fill:#F49300;}
	.st6{fill:#F9A717;}
	.st7{fill:#FFD74A;}
	.st8{opacity:0.1;}
	.st9{fill:#CE9B63;}
	.st10{fill:#A2E0F9;}
	.st11{fill:#A14BD4;}
	.st12{fill:#009543;}
	.st13{fill:#EF7B24;}
	.st14{fill:#735114;}
	.st15{fill:#F7B500;}
	.st16{fill:#FADC7F;}
	.st17{fill:#AAC551;}
	.st18{fill:#D2EFF3;}
	.st19{fill:#EF6951;}
	.st20{fill:#FFD54C;}
	.st21{fill:#F9CD8B;}
	.st22{fill:#A57A46;}
	.st23{fill:#F2F2EA;}
	.st24{fill:#58585A;}
	.st25{fill:#E7E8EA;}
	.st26{fill:#BDBEC0;}
	.st27{fill:#F11618;}
</style>
<g id="BACKGROUND">
	<rect class="st0" width="2272" height="1872"/>
</g>
<g id="OBJECT">
	<g>
		<rect x="700.2" y="601.2" class="st1" width="168.7" height="290.6"/>
		<polygon class="st2" points="742.9,452.1 826.1,452.1 868.9,601.2 700.2,601.2 		"/>
		<path class="st2" d="M824.7,936h-80.3c-24.4,0-44.2-19.8-44.2-44.2v0h168.7v0C868.9,916.2,849.1,936,824.7,936z"/>
		<path class="st1" d="M805.3,410.5h-41.6c-11.5,0-20.8,9.3-20.8,20.8v20.8h83.2v-20.8C826.1,419.8,816.8,410.5,805.3,410.5z"/>
	</g>
	<g>
		<path class="st3" d="M1536,412.9c-46.2-133.3-94.5-88.7-78.4-75c16.1,13.6,16.5,92.9,16.5,92.9L1536,412.9z"/>
		<path class="st4" d="M1486.1,407.7l-20.7-2.8l-29.5,17.3c0,0-138.1,81.2-44.4,416c20.5,5,46.5,9.2,78.7,10.9
			c-74.2-143.4,11.5-426.9,11.5-426.9L1486.1,407.7z"/>
		<path class="st5" d="M1435.9,422.3l29.5-17.3l-18.3-2.5c0,0-2.6-1.2-7.4-2.4l-42.3,22.2c0,0-210.5,110.6-60.8,396.1
			c9.7,5.3,27.4,13.3,54.9,19.9C1297.8,503.5,1435.9,422.3,1435.9,422.3z"/>
		<path class="st6" d="M1607.3,422.3L1565,400c23.4-5.9,99.1-11.7,175.9,126.1c92.4,166-63.5,286.4-63.5,286.4s-2.9,2.3-9.2,5.7
			C1817.8,532.9,1607.3,422.3,1607.3,422.3z"/>
		<path class="st4" d="M1518.6,407.7l20.7-2.8l29.5,17.3c0,0,138.1,81.2,44.4,416c-20.5,5-46.5,9.2-78.7,10.9
			c74.2-143.4-11.5-426.9-11.5-426.9L1518.6,407.7z"/>
		<path class="st5" d="M1568.8,422.3l-29.5-17.3l18.3-2.5c0,0,2.6-1.2,7.4-2.4l42.3,22.2c0,0,210.5,110.6,60.8,396.1
			c-9.7,5.3-27.4,13.3-54.9,19.9C1706.9,503.5,1568.8,422.3,1568.8,422.3z"/>
		<path class="st6" d="M1397.4,422.3l42.3-22.2c-23.4-5.9-99.1-11.7-175.9,126.1c-92.4,166,63.5,286.4,63.5,286.4s2.9,2.3,9.2,5.7
			C1186.9,532.9,1397.4,422.3,1397.4,422.3z"/>
		<path class="st6" d="M1523,422.3l-4.4-14.6l-16.2,2.2l-16.2-2.2l-4.4,14.6c0,0-85.7,283.5-11.5,426.9c10.1,0.5,20.8,0.8,32.1,0.8
			c11.3,0,22-0.3,32.1-0.8C1608.6,705.7,1523,422.3,1523,422.3z"/>
		<path class="st7" d="M1444.9,608c4.4-15.4,7.6-30.8,11.1-46.2c1.6-7.7,3.3-15.4,4.9-23.1l2.4-11.5l1.1-5.8l1.2-5.8
			c3-15.4,6-30.9,8.8-46.4c1.4-7.8,2.7-15.5,3.9-23.4c1.2-7.8,2.4-15.7,3.4-23.6c-6.9,14.4-12.1,29.5-16.8,44.7
			c-4.6,15.2-8.4,30.6-11.4,46.2c-1.6,7.8-2.9,15.6-4.1,23.5c-0.5,3.9-1.1,7.9-1.6,11.8c-0.2,2-0.5,3.9-0.7,5.9l-0.6,5.9
			c-0.2,2-0.4,4-0.5,5.9c-0.2,2-0.4,4-0.5,5.9c-0.3,4-0.4,7.9-0.6,11.9c-0.1,2-0.2,4-0.2,6c0,2,0,4,0,6
			C1444.6,600,1444.7,604,1444.9,608z"/>
	</g>
	<g>
		<ellipse class="st8" cx="1136" cy="1566" rx="613.9" ry="61.2"/>
		<g>
			<polygon class="st9" points="1222.8,531.7 1183.6,515.1 1144.4,531.7 1105.2,515.1 1066.1,531.7 1026.9,515.1 987.7,531.7 
				948.5,515.1 909.3,531.7 870.1,515.1 830.9,531.7 791.8,515.1 791.8,1114.1 1262,1114.1 1262,515.1 			"/>
			<g>
				<path class="st10" d="M1568.9,1112.2h-267.5c-24.6,0-44.6-20-44.6-44.6V662.2h356.6v405.4
					C1613.4,1092.2,1593.5,1112.2,1568.9,1112.2z"/>
				<polygon class="st10" points="1613.4,662.2 1256.8,662.2 1307,577.2 1563.2,577.2 				"/>
				<rect x="1307" y="534.7" class="st11" width="256.2" height="42.5"/>
				<path class="st11" d="M1499.2,1015.3h-128.1c-35.4,0-64-28.7-64-64V823.1c0-35.4,28.7-64,64-64h128.1c35.4,0,64,28.7,64,64
					v128.1C1563.2,986.6,1534.5,1015.3,1499.2,1015.3z"/>
			</g>
			<g>
				
					<ellipse transform="matrix(0.1736 -0.9848 0.9848 0.1736 275.2669 1845.1449)" class="st12" cx="1237.1" cy="758.5" rx="42.4" ry="9.5"/>
				
					<ellipse transform="matrix(0.8192 -0.5736 0.5736 0.8192 -217.4148 858.5962)" class="st12" cx="1252.9" cy="774.1" rx="42.4" ry="9.5"/>
				
					<ellipse transform="matrix(0.8192 -0.5736 0.5736 0.8192 -220.2717 836.896)" class="st12" cx="1217" cy="767.8" rx="9.5" ry="42.4"/>
				<g>
					<path class="st13" d="M1173.1,1121.6c36.5,6.4,88.9-290.8,88.9-290.8c3.6-20.1-9.9-39.3-30-42.9h0c-20.1-3.6-39.3,9.9-42.9,30
						C1189,818,1136.6,1115.2,1173.1,1121.6z"/>
				</g>
				<g>
					<path class="st14" d="M1184.3,951.6c3.3-0.7,6.4-0.9,9.5-0.8c3.1,0.1,6.2,0.4,9.2,0.9c3,0.5,6,1.3,9,2.3c3,1,5.9,2.2,8.7,4
						c-3.3,0.8-6.4,0.9-9.5,0.8c-3.1-0.1-6.2-0.4-9.2-0.9c-3-0.5-6-1.3-9-2.3C1190,954.6,1187.1,953.4,1184.3,951.6z"/>
					<path class="st14" d="M1198.1,873.2c3.3-0.7,6.4-0.9,9.5-0.8c3.1,0.1,6.2,0.4,9.2,0.9c3,0.5,6,1.3,9,2.3c3,1,5.9,2.2,8.7,4
						c-3.3,0.8-6.4,0.9-9.5,0.8c-3.1-0.1-6.2-0.4-9.2-0.9c-3-0.5-6-1.3-9-2.3C1203.8,876.3,1200.9,875.1,1198.1,873.2z"/>
					<path class="st14" d="M1191.2,912.4c3.3-0.7,6.4-0.9,9.5-0.8c3.1,0.1,6.2,0.4,9.2,0.9c3,0.5,6,1.3,9,2.3c3,1,5.9,2.2,8.7,4
						c-3.3,0.8-6.4,0.9-9.5,0.8c-3.1-0.1-6.2-0.4-9.2-0.9c-3-0.5-6-1.3-9-2.3C1196.9,915.4,1194,914.2,1191.2,912.4z"/>
					<path class="st14" d="M1205,834.1c3.3-0.7,6.4-0.9,9.5-0.8c3.1,0.1,6.2,0.4,9.2,0.9c3,0.5,6,1.3,9,2.3c3,1,5.9,2.2,8.7,4
						c-3.3,0.8-6.4,0.9-9.5,0.8c-3.1-0.1-6.2-0.4-9.2-0.9c-3-0.5-6-1.3-9-2.3C1210.7,837.1,1207.8,835.9,1205,834.1z"/>
					<path class="st14" d="M1170.5,1029.9c2.8,1.8,5.7,3,8.7,4c3,1,6,1.7,9,2.3c3,0.5,6.1,0.9,9.2,0.9c3.1,0.1,6.3-0.1,9.5-0.8
						c-2.8-1.8-5.7-3-8.7-4c-3-1-6-1.7-9-2.3c-3-0.5-6.1-0.9-9.2-0.9C1176.9,1029.1,1173.7,1029.2,1170.5,1029.9z"/>
					<path class="st14" d="M1177.4,990.8c2.8,1.8,5.7,3,8.7,4c3,1,6,1.7,9,2.3c3,0.5,6.1,0.9,9.2,0.9c3.1,0.1,6.3-0.1,9.5-0.8
						c-2.8-1.8-5.7-3-8.7-4c-3-1-6-1.7-9-2.3c-3-0.5-6.1-0.9-9.2-0.9C1183.8,989.9,1180.6,990,1177.4,990.8z"/>
				</g>
			</g>
			<g>
				
					<ellipse transform="matrix(0.2079 -0.9781 0.9781 0.2079 623.1724 2220.9158)" class="st12" cx="1682.9" cy="725.7" rx="47.8" ry="10.7"/>
				
					<ellipse transform="matrix(0.8387 -0.5446 0.5446 0.8387 -130.8376 1045.8879)" class="st12" cx="1700" cy="743.8" rx="47.8" ry="10.7"/>
				
					<ellipse transform="matrix(0.8387 -0.5446 0.5446 0.8387 -132.6662 1022.6539)" class="st12" cx="1659.9" cy="735.3" rx="10.7" ry="47.8"/>
				<g>
					<path class="st13" d="M1596.5,1132.2c40.8,8.7,111.6-324.1,111.6-324.1c4.8-22.6-9.6-44.7-32.2-49.5h0
						c-22.6-4.8-44.7,9.6-49.5,32.2C1626.4,790.8,1555.6,1123.6,1596.5,1132.2z"/>
				</g>
				<g>
					<path class="st14" d="M1615.8,941.1c3.7-0.7,7.3-0.7,10.8-0.5c3.5,0.2,7,0.7,10.4,1.4c3.4,0.7,6.8,1.7,10.1,2.9
						c3.3,1.3,6.5,2.7,9.6,4.9c-3.7,0.7-7.3,0.7-10.8,0.6c-3.5-0.2-7-0.7-10.4-1.4c-3.4-0.7-6.8-1.7-10-2.9
						C1622.1,944.7,1618.9,943.3,1615.8,941.1z"/>
					<path class="st14" d="M1634.4,853.4c3.7-0.7,7.3-0.7,10.8-0.5c3.5,0.2,7,0.7,10.4,1.4c3.4,0.7,6.8,1.7,10.1,2.9
						c3.3,1.3,6.5,2.7,9.6,4.9c-3.7,0.7-7.3,0.7-10.8,0.6c-3.5-0.2-7-0.7-10.4-1.4c-3.4-0.7-6.8-1.7-10-2.9
						C1640.8,857,1637.5,855.5,1634.4,853.4z"/>
					<path class="st14" d="M1625.1,897.2c3.7-0.7,7.3-0.7,10.8-0.5c3.5,0.2,7,0.7,10.4,1.4c3.4,0.7,6.8,1.7,10.1,2.9
						c3.3,1.3,6.5,2.7,9.6,4.9c-3.7,0.7-7.3,0.7-10.8,0.6c-3.5-0.2-7-0.7-10.4-1.4c-3.4-0.7-6.8-1.7-10-2.9
						C1631.4,900.9,1628.2,899.4,1625.1,897.2z"/>
					<path class="st14" d="M1643.7,809.5c3.7-0.7,7.3-0.7,10.8-0.5c3.5,0.2,7,0.7,10.4,1.4c3.4,0.7,6.8,1.7,10.1,2.9
						c3.3,1.3,6.5,2.7,9.6,4.9c-3.7,0.7-7.3,0.7-10.8,0.6c-3.5-0.2-7-0.7-10.4-1.4c-3.4-0.7-6.8-1.7-10-2.9
						C1650.1,813.1,1646.8,811.7,1643.7,809.5z"/>
					<path class="st14" d="M1597.1,1028.8c3.1,2.2,6.3,3.6,9.6,4.9c3.3,1.2,6.6,2.2,10,2.9c3.4,0.7,6.9,1.2,10.4,1.4
						c3.5,0.2,7.1,0.2,10.8-0.6c-3.1-2.2-6.3-3.6-9.6-4.9c-3.3-1.2-6.6-2.2-10.1-2.9c-3.4-0.7-6.9-1.2-10.4-1.4
						C1604.4,1028.1,1600.8,1028.1,1597.1,1028.8z"/>
					<path class="st14" d="M1606.4,985c3.1,2.2,6.3,3.6,9.6,4.9c3.3,1.2,6.6,2.2,10,2.9c3.4,0.7,6.9,1.2,10.4,1.4
						c3.5,0.2,7.1,0.2,10.8-0.6c-3.1-2.2-6.3-3.6-9.6-4.9c-3.3-1.2-6.6-2.2-10.1-2.9c-3.4-0.7-6.9-1.2-10.4-1.4
						C1613.7,984.2,1610.1,984.2,1606.4,985z"/>
				</g>
			</g>
			<g>
				
					<rect x="591.7" y="663.5" transform="matrix(0.9703 -0.2419 0.2419 0.9703 -196.7551 191.2999)" class="st15" width="177.8" height="466.8"/>
				<polygon class="st16" points="544.4,614.7 668.4,583.8 710.4,648.9 537.9,691.9 				"/>
				
					<rect x="538.1" y="563.1" transform="matrix(0.9703 -0.2419 0.2419 0.9703 -122.7814 162.9041)" class="st15" width="127.7" height="36.7"/>
			</g>
			<g>
				<rect x="779.4" y="757.3" class="st17" width="177.8" height="356.8"/>
				<polygon class="st18" points="804.4,683.9 932.1,683.9 957.2,757.3 779.4,757.3 				"/>
				<rect x="804.4" y="647.3" class="st17" width="127.7" height="36.7"/>
			</g>
			<g>
				<path class="st19" d="M942.1,787.8l152.3,26.8l-47.2,267.4c-3.7,21-23.8,35.1-44.8,31.4l-76.1-13.4c-21-3.7-35.1-23.8-31.4-44.8
					L942.1,787.8z"/>
				<polygon class="st18" points="996.2,732.6 1062.5,744.3 1094.4,814.7 942.1,787.8 				"/>
				
					<rect x="1016.2" y="689" transform="matrix(0.1736 -0.9848 0.9848 0.1736 141.1373 1613.6866)" class="st18" width="31.9" height="67.4"/>
				<path class="st19" d="M1001.3,668.7l78.3,13.8c8.7,1.5,14.5,9.8,12.9,18.5l0,0c-1.5,8.7-9.8,14.5-18.5,12.9l-78.3-13.8
					c-8.7-1.5-14.5-9.8-12.9-18.5v0C984.3,673,992.6,667.2,1001.3,668.7z"/>
			</g>
			<path class="st20" d="M1056.9,1114.1H945.6c-6.2,0-11.1-5-11.1-11.1v-22.3c0-6.2,5-11.1,11.1-11.1h111.4c6.2,0,11.1,5,11.1,11.1
				v22.3C1068.1,1109.1,1063.1,1114.1,1056.9,1114.1z"/>
			<g>
				<path class="st21" d="M1154.5,1123.3L1154.5,1123.3c32.2-2.8,56-31.2,53.1-63.3l-52-594.1c-2.8-32.2-31.2-56-63.3-53.1l0,0
					c-32.2,2.8-56,31.2-53.1,63.3l52,594.1C1094,1102.3,1122.3,1126.1,1154.5,1123.3z"/>
				<g>
					
						<ellipse transform="matrix(8.715574e-02 -0.9962 0.9962 8.715574e-02 286.5569 1791.6948)" class="st22" cx="1120.9" cy="739.5" rx="11.4" ry="33.8"/>
					
						<ellipse transform="matrix(8.715574e-02 -0.9962 0.9962 8.715574e-02 338.792 1734.6903)" class="st22" cx="1115.9" cy="682.5" rx="11.4" ry="33.8"/>
					
						<ellipse transform="matrix(8.715574e-02 -0.9962 0.9962 8.715574e-02 391.027 1677.6857)" class="st22" cx="1110.9" cy="625.5" rx="11.4" ry="33.8"/>
					
						<ellipse transform="matrix(8.715574e-02 -0.9962 0.9962 8.715574e-02 443.2621 1620.681)" class="st22" cx="1106" cy="568.5" rx="11.4" ry="33.8"/>
					
						<ellipse transform="matrix(8.715574e-02 -0.9962 0.9962 8.715574e-02 495.4972 1563.6765)" class="st22" cx="1101" cy="511.5" rx="11.4" ry="33.8"/>
					
						<ellipse transform="matrix(8.715574e-02 -0.9962 0.9962 8.715574e-02 234.3218 1848.6995)" class="st22" cx="1125.9" cy="796.5" rx="11.4" ry="33.8"/>
					
						<ellipse transform="matrix(8.715574e-02 -0.9962 0.9962 8.715574e-02 182.0867 1905.704)" class="st22" cx="1130.9" cy="853.5" rx="11.4" ry="33.8"/>
					
						<ellipse transform="matrix(8.715574e-02 -0.9962 0.9962 8.715574e-02 129.8516 1962.7086)" class="st22" cx="1135.9" cy="910.5" rx="11.4" ry="33.8"/>
					
						<ellipse transform="matrix(8.715574e-02 -0.9962 0.9962 8.715574e-02 77.6165 2019.7133)" class="st22" cx="1140.9" cy="967.5" rx="11.4" ry="33.8"/>
					
						<ellipse transform="matrix(8.715574e-02 -0.9962 0.9962 8.715574e-02 25.3815 2076.7178)" class="st22" cx="1145.9" cy="1024.5" rx="11.4" ry="33.8"/>
				</g>
			</g>
			<g>
				<path class="st21" d="M1250.8,1122.7L1250.8,1122.7c31.2,8.4,63.2-10.2,71.6-41.3l154.3-576c8.4-31.2-10.2-63.2-41.3-71.6l0,0
					c-31.2-8.4-63.2,10.2-71.6,41.3l-154.3,576C1201.1,1082.3,1219.6,1114.4,1250.8,1122.7z"/>
				<g>
					
						<ellipse transform="matrix(0.4226 -0.9063 0.9063 0.4226 99.4695 1657.3832)" class="st22" cx="1350.5" cy="750.6" rx="11.4" ry="33.8"/>
					
						<ellipse transform="matrix(0.4226 -0.9063 0.9063 0.4226 158.1146 1638.8925)" class="st22" cx="1365.3" cy="695.4" rx="11.4" ry="33.8"/>
					
						<ellipse transform="matrix(0.4226 -0.9063 0.9063 0.4226 216.7597 1620.4017)" class="st22" cx="1380.1" cy="640.1" rx="11.4" ry="33.8"/>
					
						<ellipse transform="matrix(0.4226 -0.9063 0.9063 0.4226 275.4048 1601.911)" class="st22" cx="1395" cy="584.8" rx="11.4" ry="33.8"/>
					
						<ellipse transform="matrix(0.4226 -0.9063 0.9063 0.4226 334.0499 1583.4203)" class="st22" cx="1409.8" cy="529.5" rx="11.4" ry="33.8"/>
					
						<ellipse transform="matrix(0.4226 -0.9063 0.9063 0.4226 40.8244 1675.8739)" class="st22" cx="1335.7" cy="805.9" rx="11.4" ry="33.8"/>
					
						<ellipse transform="matrix(0.4226 -0.9063 0.9063 0.4226 -17.8206 1694.3646)" class="st22" cx="1320.9" cy="861.2" rx="11.4" ry="33.8"/>
					
						<ellipse transform="matrix(0.4226 -0.9063 0.9063 0.4226 -76.4657 1712.8553)" class="st22" cx="1306.1" cy="916.4" rx="11.4" ry="33.8"/>
					
						<ellipse transform="matrix(0.4226 -0.9063 0.9063 0.4226 -135.1108 1731.3461)" class="st22" cx="1291.3" cy="971.7" rx="11.4" ry="33.8"/>
					
						<ellipse transform="matrix(0.4226 -0.9063 0.9063 0.4226 -193.7559 1749.8368)" class="st22" cx="1276.5" cy="1027" rx="11.4" ry="33.8"/>
				</g>
			</g>
			<g>
				<g>
					<path class="st23" d="M637.4,1145.5c-7,0-13.4-4.8-15.2-11.9L422.8,336.2c-6.1-24.4-27.9-41.5-53.1-41.5
						c-8.7,0-15.7-7-15.7-15.7c0-8.7,7-15.7,15.7-15.7c39.6,0,74,26.8,83.6,65.3l199.3,797.4c2.1,8.4-3,16.9-11.4,19
						C639.9,1145.3,638.6,1145.5,637.4,1145.5z"/>
				</g>
				<g>
					<path class="st23" d="M1634.6,1145.4H637.4c-7.2,0-13.5-4.9-15.2-11.9l-187-747.9c-1.2-4.7-0.1-9.7,2.9-13.5
						c3-3.8,7.5-6,12.4-6h1371.2c4.8,0,9.4,2.2,12.4,6c3,3.8,4,8.8,2.9,13.5l-187,747.9C1648.1,1140.5,1641.8,1145.4,1634.6,1145.4z
						 M649.7,1114.1h972.7l179.1-716.5H470.5L649.7,1114.1z"/>
				</g>
				<g>
					<circle class="st24" cx="1439.7" cy="1441.4" r="124.6"/>
					<circle class="st25" cx="1439.7" cy="1441.4" r="99.2"/>
					<path class="st26" d="M1342.3,1254.4h194.9l-23.6,172.9c-6.7,48.9-37.7,84.3-73.8,84.3h0c-36.1,0-67.2-35.4-73.8-84.3
						L1342.3,1254.4z"/>
					<circle class="st24" cx="1439.7" cy="1441.4" r="31.2"/>
				</g>
				<g>
					<circle class="st24" cx="832.3" cy="1441.4" r="124.6"/>
					<circle class="st25" cx="832.3" cy="1441.4" r="99.2"/>
					<path class="st26" d="M929.7,1254.4H734.8l23.6,172.9c6.7,48.9,37.7,84.3,73.8,84.3h0c36.1,0,67.2-35.4,73.8-84.3L929.7,1254.4
						z"/>
					<circle class="st24" cx="832.3" cy="1441.4" r="31.2"/>
				</g>
				<path class="st27" d="M348,244.7H142.3c-18.9,0-34.3,15.3-34.3,34.3v0c0,18.9,15.3,34.3,34.3,34.3H348
					c18.9,0,34.3-15.3,34.3-34.3v0C382.3,260.1,366.9,244.7,348,244.7z"/>
				<g>
					<path class="st23" d="M1710.5,1270.1H623.8c-43,0-78-35-78-78s35-78,78-78h1010.8c8.7,0,15.7,7,15.7,15.7s-7,15.7-15.7,15.7
						H623.8c-25.7,0-46.6,20.9-46.6,46.6s20.9,46.6,46.6,46.6h1086.7c8.7,0,15.7,7,15.7,15.7S1719.2,1270.1,1710.5,1270.1z"/>
				</g>
				<g>
					<path class="st23" d="M1136,1145.4c-8.7,0-15.7-7-15.7-15.7V381.9c0-8.7,7-15.7,15.7-15.7s15.7,7,15.7,15.7v747.9
						C1151.7,1138.4,1144.7,1145.4,1136,1145.4z"/>
				</g>
				<g>
					<path class="st23" d="M1759.3,646.8H512.7c-8.7,0-15.7-7-15.7-15.7s7-15.7,15.7-15.7h1246.5c8.7,0,15.7,7,15.7,15.7
						S1767.9,646.8,1759.3,646.8z"/>
				</g>
				<g>
					<path class="st23" d="M1821.6,397.5H450.4c-8.7,0-15.7-7-15.7-15.7s7-15.7,15.7-15.7h1371.2c8.7,0,15.7,7,15.7,15.7
						S1830.2,397.5,1821.6,397.5z"/>
				</g>
				<g>
					<path class="st23" d="M1696.9,896.1H575.1c-8.7,0-15.7-7-15.7-15.7s7-15.7,15.7-15.7h1121.9c8.7,0,15.7,7,15.7,15.7
						S1705.6,896.1,1696.9,896.1z"/>
				</g>
				<g>
					<path class="st23" d="M902.5,1145.5c-7.7,0-14.4-5.7-15.5-13.5L781.6,384c-1.2-8.6,4.8-16.5,13.4-17.7
						c8.6-1.2,16.5,4.8,17.7,13.4L918,1127.6c1.2,8.6-4.8,16.5-13.4,17.7C903.9,1145.4,903.2,1145.5,902.5,1145.5z"/>
				</g>
				<g>
					<path class="st23" d="M1369.5,1145.5c-0.7,0-1.5-0.1-2.2-0.2c-8.6-1.2-14.6-9.1-13.4-17.7l105.3-747.9
						c1.2-8.6,9.1-14.6,17.7-13.4c8.6,1.2,14.6,9.1,13.4,17.7L1385,1131.9C1383.9,1139.8,1377.2,1145.5,1369.5,1145.5z"/>
				</g>
			</g>
		</g>
	</g>
</g>
</svg>
